<?xml version="1.0" encoding="UTF-8"?>
<svg id="_레이어_1" data-name="레이어 1" xmlns="http://www.w3.org/2000/svg" viewBox="0 0 250 150">
  <defs>
    <style>
      .cls-1 {
        fill: #fa0030;
      }
    </style>
  </defs>
  <g>
    <path class="cls-1" d="M34.62,61.51h-17.32c-.1,0-.18.08-.18.18v6.04c0,.1.08.18.18.18h5.11v20.4c0,.1.08.18.18.18h6.71c.1,0,.18-.08.18-.18v-18.32c0-.09-.05-.16-.13-.19l-4.54-1.88h9.82c.1,0,.18-.08.18-.18v-6.04c0-.1-.08-.18-.18-.18Z"/>
    <path class="cls-1" d="M37.27,88.3v-26.61c0-.1.08-.18.18-.18h16.27c.1,0,.18.08.18.18v5.53c0,.1-.08.18-.18.18h-10v4.49h7.71c.1,0,.18.08.18.18v4.99c0,.1-.08.18-.18.18h-7.71v5.35h10c.1,0,.18.08.18.18v5.55c0,.1-.08.18-.18.18h-16.27c-.1,0-.18-.08-.18-.18Z"/>
    <path class="cls-1" d="M88.28,61.69l2.36,14.54h.27s2.41-14.54,2.41-14.54c.02-.1.1-.18.21-.18h8.32c.1,0,.18.08.18.18v26.61c0,.1-.08.18-.18.18h-6.01c-.1,0-.18-.08-.18-.18l.32-18.18h-.27l-3.03,18.24c-.01.07-.07.12-.14.12h-3.71c-.07,0-.13-.05-.14-.12l-3.03-18.24h-.28l.32,18.15c0,.12-.09.21-.21.21h-5.87c-.1,0-.18-.08-.18-.18v-26.61c0-.1.08-.18.18-.18h8.44c.1,0,.19.07.21.18Z"/>
    <path class="cls-1" d="M78,88.29l-5.93-26.67c-.01-.06-.07-.11-.14-.11h-9.63c-.06,0-.12.04-.14.11l-6.74,26.67c-.02.1.05.19.15.19h6.91c.08,0,.16-.06.17-.14l1.03-5.43h6.14l.87,5.42c.01.08.09.15.17.15h6.98c.1,0,.17-.09.15-.19ZM66.88,66.19h.26l2.01,11.7h-4.66s2.39-11.7,2.39-11.7Z"/>
  </g>
  <g>
    <path class="cls-1" d="M173.17,88.29l-5.93-26.66c-.01-.06-.07-.11-.14-.11h-9.63c-.06,0-.12.04-.14.11l-6.74,26.66c-.02.1.05.19.15.19h6.91c.08,0,.16-.06.17-.14l1.03-5.42h6.14l.87,5.42c.01.08.09.15.17.15h6.98c.1,0,.17-.09.15-.19ZM162.05,66.19h.26l2.01,11.7h-4.66s2.39-11.7,2.39-11.7Z"/>
    <path class="cls-1" d="M130.56,71.52c.1,0,.18-.08.18-.18v-2.15c0-3.02-.47-4.38-1.47-5.47-1.6-1.96-4.64-2.74-8.39-2.74-3.31,0-6.32.64-7.84,2.55-1.33,1.46-1.89,3.41-1.84,5.33h0c.08,2.98,1.14,4.45,2.81,5.49,2.09,1.3,7.29,3.87,9.27,5.01.48.27.77.78.77,1.33v1.62c0,.13-.06.26-.17.34l-2.76,2.09c-.1.08-.24.08-.34,0l-2.76-2.09c-.11-.08-.17-.2-.17-.34v-3.86c0-.1-.08-.18-.18-.18h-6.51c-.1,0-.18.08-.18.18v1.56c0,3.42.44,4.89,1.81,6.34,1.65,2,4.53,2.67,8.07,2.64,3.54.05,6.6-.5,8.3-2.59,1.37-1.46,1.84-3.65,1.84-5.39h0c-.01-2.68-1.25-4.52-2.93-5.58-2.3-1.46-7.5-4.11-9.46-5.24-.48-.27-.77-.78-.77-1.32v-1.51c0-.13.06-.26.17-.34l2.76-2.09c.1-.08.24-.08.34,0l2.76,2.09c.11.08.17.2.17.34v3.97c0,.1.08.18.18.18h6.33Z"/>
    <path class="cls-1" d="M143.85,61.51h-10.23c-.1,0-.18.08-.18.18v26.61c0,.1.08.18.18.18h6.4c.1,0,.18-.08.18-.18v-10l4.92,2.04c1.63-.03,2.98-.23,4.31-1.41,2.15-1.92,2.69-4.68,2.78-7.95.05-3.27-.22-6.47-2.89-8.11-1.59-.98-3.77-1.35-5.46-1.35ZM145.88,70.74c0,2.81-.98,4.59-2.96,4.59h-2.72v-9.14h2.72c1.98,0,2.96,1.73,2.96,4.55h0Z"/>
    <path class="cls-1" d="M187.51,76.97h0c1.34,0,3.08-.43,4.17-1.41,1.75-1.57,1.76-3.58,1.76-6.37,0-4.2-1.16-5.46-2.81-6.49-1.6-.99-3.76-1.17-5.47-1.17h-10.24c-.1,0-.18.08-.18.18v26.61c0,.1.08.18.18.18h6.59v-10.46s3.64,1.47,3.64,1.47c1.74.67,1.48,1.62,1.48,3.29v5.7h6.63c.1,0,.18-.08.18-.18v-6.09c0-2.9-1.32-3.94-3.21-4.46l-2.71-.79ZM181.44,66.21h2.68c1.98,0,3.06,1.33,3.06,4.31h0c0,2.98-1.07,4.31-3.06,4.31h-2.68v-8.61Z"/>
    <path class="cls-1" d="M212.47,61.51h-17.32c-.1,0-.18.08-.18.18v6.04c0,.1.08.18.18.18h5.11v20.41c0,.1.08.18.18.18h6.71c.1,0,.18-.08.18-.18v-18.34c0-.09-.05-.16-.13-.19l-4.54-1.88h9.82c.1,0,.18-.08.18-.18v-6.04c0-.1-.08-.18-.18-.18Z"/>
    <path class="cls-1" d="M232.87,88.29l-5.93-26.66c-.01-.06-.07-.11-.14-.11h-9.63c-.06,0-.12.04-.14.11l-6.74,26.66c-.02.1.05.19.15.19h6.91c.08,0,.16-.06.17-.14l1.03-5.42h6.14l.87,5.42c.01.08.09.15.17.15h6.98c.1,0,.17-.09.15-.19ZM221.75,66.19h.26l2.01,11.7h-4.66s2.39-11.7,2.39-11.7Z"/>
  </g>
</svg>